<?xml version="1.0" encoding="UTF-8" standalone="no"?>
<svg
   xmlns:dc="http://purl.org/dc/elements/1.1/"
   xmlns:cc="http://creativecommons.org/ns#"
   xmlns:rdf="http://www.w3.org/1999/02/22-rdf-syntax-ns#"
   xmlns:svg="http://www.w3.org/2000/svg"
   xmlns="http://www.w3.org/2000/svg"
   id="svg18"
   xml:space="preserve"
   viewBox="0 0 1024 768"
   y="0px"
   x="0px"
   version="1.1"><metadata
     id="metadata24"><rdf:RDF><cc:Work
         rdf:about=""><dc:format>image/svg+xml</dc:format><dc:type
           rdf:resource="http://purl.org/dc/dcmitype/StillImage" /></cc:Work></rdf:RDF></metadata><defs
     id="defs22" /><rect
     id="rect2"
     height="768"
     width="1024"
     fill="#f7f8f8" /><g
     transform="matrix(1.389,0,0,1.389,-199.17,-166.93)"
     id="logo-group"><path
       stroke-miterlimit="2"
       d="m 346.54,480.74 q -8.8704,0 -13.86,-5.2668 -4.9896,-5.2668 -4.9896,-14.969 0,-6.3756 2.1622,-10.922 2.2176,-4.6015 6.1538,-6.93 3.9917,-2.3839 9.203,-2.3839 3.1601,0 6.3756,1.8295 1.2197,0.66528 2.4394,1.7741 0.94248,-1.4414 1.9404,-2.273 0.99792,-0.72072 1.1088,-0.77616 h 1.386 v 10.534 h -2.2176 q -0.72072,-2.6611 -2.1622,-4.8233 -1.3306,-2.1067 -3.3264,-3.4927 -1.9404,-1.386 -4.4906,-1.386 -3.8254,0 -6.3756,4.4352 -2.4948,4.4352 -2.4948,14.414 0,10.146 2.7166,14.525 2.772,4.3243 7.5398,4.3243 2.6057,0 4.9342,-1.4414 2.3839,-1.4969 3.8254,-3.9362 1.4969,-2.4394 1.4969,-5.1559 h 1.386 q 0,3.1601 -1.7186,5.9321 -1.6632,2.7166 -4.6015,4.3798 -2.8829,1.6078 -6.431,1.6078 z"
       style="font-variant-ligatures:none;fill:#056d09;stroke-width:0;stroke-miterlimit:2"
       id="path22076" /><path
       stroke-miterlimit="2"
       d="m 377.63,480.74 q -6.8746,0 -10.811,-3.8808 -3.8808,-3.9362 -3.8808,-10.811 0,-6.8746 3.8808,-10.755 3.9362,-3.9362 10.811,-3.9362 6.8746,0 10.755,3.9362 3.9362,3.8808 3.9362,10.755 0,6.8746 -3.9362,10.811 -3.8808,3.8808 -10.755,3.8808 z m 0,-1.1088 q 2.2176,0 3.7145,-3.1046 1.5523,-3.1046 1.5523,-10.478 0,-7.3735 -1.5523,-10.478 -1.4969,-3.1046 -3.7145,-3.1046 -2.2176,0 -3.7699,3.1046 -1.4969,3.1046 -1.4969,10.478 0,7.3735 1.4969,10.478 1.5523,3.1046 3.7699,3.1046 z"
       style="font-variant-ligatures:none;fill:#097809;stroke-width:0;stroke-miterlimit:2"
       id="path22078" /><path
       stroke-miterlimit="2"
       d="m 396.72,479.07 3.3264,-0.8316 v -24.394 l -3.3264,-0.8316 v -0.8316 h 4.9896 q 3.271,0 5.1559,2.1067 0.72072,0.8316 1.2197,2.0513 0.77616,-1.4414 1.8295,-2.4948 2.4948,-2.4948 6.2093,-2.4948 3.1046,0 5.544,1.3306 2.4948,1.2751 3.8808,3.3818 1.386,2.1067 1.386,4.4352 v 17.741 l 3.3264,0.8316 v 0.8316 h -7.2072 q -4.9896,0 -4.9896,-4.9896 v -14.42 q 0,-3.4927 -1.2751,-5.3222 -1.2197,-1.885 -2.8829,-1.885 -2.1067,0 -3.7699,2.2176 -0.72072,0.94248 -1.2197,2.2176 v 20.513 l 3.3264,0.8316 v 0.8316 h -15.523 z"
       style="font-variant-ligatures:none;fill:#0c8208;stroke-width:0;stroke-miterlimit:2"
       id="path22080" /><path
       stroke-miterlimit="2"
       d="m 434.09,479.9 v -0.8316 l 3.3264,-0.8316 v -35.482 l -3.3264,-0.8316 v -0.8316 h 15.8 v 0.8316 l -3.3264,0.8316 v 35.482 l 3.3264,0.8316 V 479.9 Z"
       style="font-variant-ligatures:none;fill:#13d236;stroke-width:0;stroke-miterlimit:2"
       id="path22082" /><path
       stroke-miterlimit="2"
       d="m 454.86,479.07 3.3264,-0.8316 v -24.394 l -3.3264,-0.8316 v -0.8316 h 4.9896 q 3.271,0 5.1559,2.1067 0.72072,0.8316 1.2197,2.0513 0.77616,-1.4414 1.8295,-2.4948 2.4948,-2.4948 6.2093,-2.4948 3.1046,0 5.544,1.3306 2.4948,1.2751 3.8808,3.3818 1.386,2.1067 1.386,4.4352 v 17.741 l 3.3264,0.8316 v 0.8316 h -7.2072 q -4.9896,0 -4.9896,-4.9896 v -14.42 q 0,-3.4927 -1.2751,-5.3222 -1.2197,-1.885 -2.8829,-1.885 -2.1067,0 -3.7699,2.2176 -0.72072,0.94248 -1.2197,2.2176 v 20.513 l 3.3264,0.8316 v 0.8316 h -15.523 z"
       style="font-variant-ligatures:none;fill:#13d236;stroke-width:0;stroke-miterlimit:2"
       id="path22084" /><path
       stroke-miterlimit="2"
       d="m 490.04,453.85 -2.772,-0.8316 v -0.8316 h 6.93 q 2.8829,0 4.5461,1.2197 1.7186,1.1642 2.9383,3.4927 l 6.5974,12.807 6.1538,-15.024 -4.158,-1.6632 v -0.8316 h 10.256 v 0.8316 l -4.4352,1.6632 -10.534,25.78 h -1.6632 z"
       style="font-variant-ligatures:none;fill:#13d236;stroke-width:0;stroke-miterlimit:2"
       id="path22086" /><path
       stroke-miterlimit="2"
       d="m 535.56,480.74 q -7.0963,0 -11.033,-3.8808 -3.9362,-3.9362 -3.9362,-10.811 0,-4.4906 1.7186,-7.817 1.7186,-3.3264 4.7678,-5.1005 3.1046,-1.7741 7.0963,-1.7741 3.9917,0 6.9854,1.4969 3.0492,1.4969 4.657,4.0471 1.6632,2.4948 1.6632,5.544 0,1.386 -0.2772,2.3839 l -0.2772,0.94248 q -2.3839,0.49896 -5.1559,0.8316 -5.8212,0.8316 -11.753,0.8316 0,6.431 1.7741,9.203 1.7741,2.7166 4.8787,2.7166 2.1622,0 3.9917,-0.99792 1.885,-1.0534 2.9383,-2.7166 1.1088,-1.7186 1.1088,-3.4927 h 1.386 q 0,2.2176 -1.3306,4.2134 -1.3306,1.9958 -3.7145,3.2155 -2.3839,1.1642 -5.4886,1.1642 z m -5.544,-14.692 q 3.5482,0 5.7658,-0.2772 0.94248,-0.0554 1.9958,-0.2772 0.0554,-0.2772 0.2772,-1.2197 0.2772,-1.386 0.2772,-2.9383 0,-4.6015 -1.2197,-6.7082 -1.2197,-2.1622 -2.9383,-2.1622 -4.158,0 -4.158,13.583 z"
       style="font-variant-ligatures:none;fill:#13d236;stroke-width:0;stroke-miterlimit:2"
       id="path22088" /><path
       stroke-miterlimit="2"
       d="m 551.67,479.07 3.3264,-0.8316 v -24.394 l -3.3264,-0.8316 v -0.8316 h 4.9896 q 3.271,0 5.1559,2.1067 0.72072,0.8316 1.2197,2.0513 0.8316,-1.2197 2.0513,-2.2176 2.772,-2.2176 6.2093,-2.2176 2.9383,0 4.3798,1.386 1.4969,1.3306 1.4969,3.8808 0,1.885 -1.1642,3.0492 -1.1088,1.1088 -2.9938,1.1088 -0.77616,0 -1.5523,-0.11088 l -0.66528,-0.16632 V 453.29 q -2.8274,0 -5.1559,2.2176 -1.1088,1.1088 -1.7741,2.2176 v 20.513 l 3.3264,0.8316 v 0.8316 h -15.523 z"
       style="font-variant-ligatures:none;fill:#13d236;stroke-width:0;stroke-miterlimit:2"
       id="path22090" /><path
       stroke-miterlimit="2"
       d="m 593.28,480.74 q -3.4373,0 -6.1538,-1.4969 -1.3306,-0.72072 -2.1622,-1.5523 -0.88704,1.2197 -1.9404,1.885 -0.49896,0.33264 -1.1088,0.60984 h -1.386 v -9.4248 h 2.2176 q 0.72072,2.3285 2.1067,4.3243 2.9383,4.2689 7.3181,4.2689 2.3285,0 3.4927,-1.1088 1.2197,-1.1642 1.2197,-3.3264 0,-1.8295 -1.6632,-3.0492 -1.6078,-1.2751 -5.1005,-3.1046 -2.9938,-1.4969 -4.8787,-2.6611 -1.8295,-1.2197 -3.1601,-2.9938 -1.2751,-1.8295 -1.2751,-4.2689 0,-3.3264 2.8274,-5.3777 2.8829,-2.1067 8.815,-2.1067 2.9383,0 5.4331,1.5523 1.2197,0.72072 2.1067,1.4969 0.72072,-0.99792 1.9404,-1.885 0.94248,-0.5544 1.1088,-0.60984 h 1.386 v 9.4248 h -2.2176 q -0.8316,-2.3839 -2.0513,-4.2689 -2.772,-4.3243 -6.5974,-4.3243 -1.4969,0 -2.5502,1.1088 -1.0534,1.1088 -1.0534,2.772 0,2.1067 1.7741,3.5482 1.7741,1.386 5.3777,3.2155 2.9383,1.4969 4.657,2.6611 1.7741,1.1088 2.9938,2.772 1.2751,1.6632 1.2751,3.8808 0,8.0388 -12.751,8.0388 z"
       style="font-variant-ligatures:none;fill:#13d236;stroke-width:0;stroke-miterlimit:2"
       id="path22092" /><path
       stroke-miterlimit="2"
       d="m 610.14,479.07 3.3264,-0.8316 v -24.394 l -3.3264,-0.8316 v -0.8316 h 7.2072 q 4.9896,0 4.9896,4.9896 v 21.067 l 3.3264,0.8316 v 0.8316 h -15.523 z m 7.2072,-30.215 q -1.6632,0 -2.772,-1.1088 -1.1088,-1.1088 -1.1088,-2.772 0,-1.6632 1.1088,-2.772 1.1088,-1.1088 2.772,-1.1088 1.6632,0 2.772,1.1088 1.1088,1.1088 1.1088,2.772 0,1.6632 -1.1088,2.772 -1.1088,1.1088 -2.772,1.1088 z"
       style="font-variant-ligatures:none;fill:#13d236;stroke-width:0;stroke-miterlimit:2"
       id="path22094" /><path
       stroke-miterlimit="2"
       d="m 643.67,480.74 q -6.8746,0 -10.811,-3.8808 -3.8808,-3.9362 -3.8808,-10.811 0,-6.8746 3.8808,-10.755 3.9362,-3.9362 10.811,-3.9362 6.8746,0 10.755,3.9362 3.9362,3.8808 3.9362,10.755 0,6.8746 -3.9362,10.811 -3.8808,3.8808 -10.755,3.8808 z m 0,-1.1088 q 2.2176,0 3.7145,-3.1046 1.5523,-3.1046 1.5523,-10.478 0,-7.3735 -1.5523,-10.478 -1.4969,-3.1046 -3.7145,-3.1046 -2.2176,0 -3.7699,3.1046 -1.4969,3.1046 -1.4969,10.478 0,7.3735 1.4969,10.478 1.5523,3.1046 3.7699,3.1046 z m -1.5523,-30.215 2.2176,-8.316 h 7.2072 l -7.4844,8.316 z"
       style="font-variant-ligatures:none;fill:#13d236;stroke-width:0;stroke-miterlimit:2"
       id="path22096" /><path
       stroke-miterlimit="2"
       d="m 662.76,479.07 3.3264,-0.8316 v -24.394 l -3.3264,-0.8316 v -0.8316 h 4.9896 q 3.271,0 5.1559,2.1067 0.72072,0.8316 1.2197,2.0513 0.77616,-1.4414 1.8295,-2.4948 2.4948,-2.4948 6.2093,-2.4948 3.1046,0 5.544,1.3306 2.4948,1.2751 3.8808,3.3818 1.386,2.1067 1.386,4.4352 v 17.741 l 3.3264,0.8316 v 0.8316 h -7.2072 q -4.9896,0 -4.9896,-4.9896 v -14.42 q 0,-3.4927 -1.2751,-5.3222 -1.2197,-1.885 -2.8829,-1.885 -2.1067,0 -3.7699,2.2176 -0.72072,0.94248 -1.2197,2.2176 v 20.513 l 3.3264,0.8316 v 0.8316 h -15.523 z"
       style="font-variant-ligatures:none;fill:#13d236;stroke-width:0;stroke-miterlimit:2"
       id="path22098" /><path
       style="fill:#0ebd2f;stroke-width:0.67500001"
       d="m 558.91,312.54 c -0.19403,-0.01 -0.3145,0.005 -0.45224,0.057 -0.1032,0.039 -0.85455,0.36667 -1.6701,0.72846 -0.81513,0.36179 -1.9804,0.88608 -2.5896,1.1646 -0.60874,0.27885 -1.5038,0.69282 -1.9891,0.91989 -0.48489,0.22706 -1.2535,0.59035 -1.7076,0.8069 -0.45411,0.21692 -1.1297,0.54118 -1.5012,0.72056 -0.37154,0.17977 -1.6296,0.80392 -2.796,1.3875 -1.1661,0.58322 -2.5847,1.3019 -3.1525,1.5965 -0.56745,0.29499 -1.5894,0.83167 -2.2706,1.1927 -0.68114,0.36103 -1.8633,0.99832 -2.6271,1.416 -0.76376,0.41733 -1.7432,0.95776 -2.1767,1.201 -0.43347,0.2432 -1.261,0.71192 -1.839,1.0422 -0.57796,0.33027 -1.3549,0.7776 -1.7264,0.99495 -0.37154,0.21693 -1.0891,0.63989 -1.595,0.93974 -0.50553,0.29986 -1.3879,0.83052 -1.9602,1.1792 l -1.0407,0.63388 -0.0101,3.3657 -0.0101,3.3661 -0.0878,0.16888 c -0.0481,0.0927 -0.14937,0.23381 -0.22518,0.313 -0.0754,0.0792 -0.22181,0.1884 -0.32502,0.24244 -0.14862,0.0781 -0.23869,0.0983 -0.43159,0.0968 -0.16926,-0.001 -0.30737,-0.0285 -0.45036,-0.0897 -0.11334,-0.0484 -0.25521,-0.12159 -0.3145,-0.16251 -0.0593,-0.0409 -0.15237,-0.1685 -0.20642,-0.2841 l -0.10125,-0.20925 -0.0135,-2.7115 c -0.006,-1.4914 -0.0173,-2.7115 -0.0244,-2.7115 -0.007,0 -0.40758,0.25032 -0.88985,0.55619 -0.48188,0.30625 -1.3406,0.85759 -1.9084,1.2257 -0.56745,0.36817 -1.6487,1.0786 -2.4019,1.5792 -0.75323,0.50028 -1.7834,1.1931 -2.2893,1.5391 -0.50552,0.34602 -1.4242,0.98293 -2.0416,1.4153 -0.61699,0.43234 -1.487,1.049 -1.9328,1.3706 -0.44585,0.32126 -1.1315,0.82005 -1.5237,1.1083 -0.39219,0.28823 -1.2197,0.90673 -1.839,1.3744 -0.61925,0.46762 -1.4382,1.0932 -1.8202,1.3905 -0.38168,0.29723 -1.0658,0.83619 -1.52,1.1983 -0.45411,0.36179 -1.2043,0.96863 -1.6671,1.3484 -0.46274,0.3798 -1.2227,1.0133 -1.6888,1.4078 -0.46612,0.39444 -1.1935,1.0205 -1.6168,1.3908 -0.42296,0.3708 -1.1154,0.98705 -1.5387,1.3702 -0.42296,0.3828 -1.1488,1.0508 -1.6123,1.4843 -0.4635,0.43385 -1.2359,1.1747 -1.7166,1.6468 l -0.87372,0.85833 -0.01,7.1543 -0.01,7.1543 -0.11146,0.20116 c -0.0612,0.11072 -0.17714,0.25708 -0.25708,0.32576 -0.0803,0.0687 -0.20754,0.15575 -0.28297,0.19328 -0.0995,0.0495 -0.21843,0.0672 -0.43685,0.0657 -0.25482,-0.002 -0.33852,-0.0202 -0.55319,-0.12047 -0.17564,-0.0818 -0.27584,-0.15538 -0.32839,-0.24132 -0.042,-0.0683 -0.0968,-0.18315 -0.12197,-0.2552 -0.0349,-0.10059 -0.0503,-1.5459 -0.0653,-6.1399 l -0.0195,-6.0086 -0.88648,0.92327 c -0.48751,0.50778 -1.1886,1.2445 -1.5575,1.6371 -0.36893,0.39257 -1.0677,1.1447 -1.553,1.6716 -0.48488,0.52655 -1.2892,1.413 -1.7872,1.9696 -0.49803,0.55657 -1.258,1.4172 -1.6893,1.9125 -0.43122,0.4954 -1.1476,1.3312 -1.5924,1.8577 -0.44473,0.52617 -1.079,1.2861 -1.4096,1.6888 -0.33065,0.40232 -0.96451,1.1878 -1.4085,1.7451 -0.44398,0.55732 -1.061,1.3424 -1.3706,1.7452 -0.31,0.40232 -0.85833,1.1285 -1.219,1.6138 -0.36028,0.48488 -0.90895,1.2366 -1.2193,1.6701 -0.31037,0.43347 -0.7971,1.1259 -1.0816,1.5387 -0.2841,0.41283 -0.72731,1.0692 -0.98401,1.4584 -0.25708,0.38918 -0.68303,1.0479 -0.94723,1.4637 -0.26384,0.41582 -0.65002,1.0373 -0.85833,1.3814 -0.20791,0.34378 -0.57083,0.96039 -0.80649,1.3698 -0.23531,0.40907 -0.60573,1.0737 -0.82343,1.4761 -0.2173,0.40232 -0.60048,1.1417 -0.85084,1.6431 -0.2507,0.50103 -0.58397,1.1935 -0.74007,1.5387 -0.1565,0.3449 -0.39894,0.89775 -0.53893,1.228 -0.13961,0.33026 -0.38131,0.93825 -0.53668,1.3511 -0.155,0.41283 -0.38394,1.0629 -0.50778,1.4449 -0.12423,0.38167 -0.29499,0.94648 -0.37943,1.2546 -0.0845,0.30812 -0.21205,0.82303 -0.28336,1.1447 -0.0717,0.32126 -0.164,0.78699 -0.20566,1.0347 -0.042,0.2477 -0.10096,0.64439 -0.13098,0.88196 -0.0304,0.23718 -0.0747,0.72697 -0.0987,1.0884 -0.0251,0.38318 -0.0326,0.90706 -0.018,1.2572 0.0139,0.33026 0.0499,0.79448 0.0803,1.0321 0.0308,0.23718 0.0886,0.59372 0.12873,0.7915 0.0402,0.19816 0.11597,0.51041 0.16851,0.69431 0.0525,0.18389 0.1565,0.49464 0.23118,0.69093 0.0747,0.1959 0.22444,0.53367 0.33252,0.7506 0.10846,0.21654 0.30137,0.55281 0.42934,0.74722 l 0.23231,0.35315 -6.3043,6.3084 -6.3039,6.3084 -0.0653,0.20192 c -0.0465,0.14486 -0.0597,0.27546 -0.0465,0.46011 0.0135,0.18841 0.051,0.32464 0.13961,0.50403 0.0822,0.16701 0.17001,0.2811 0.27359,0.35616 0.0837,0.0608 0.22143,0.1291 0.30587,0.152 0.0848,0.0229 0.28072,0.0342 0.43535,0.0252 0.20679,-0.0124 0.33702,-0.0439 0.49089,-0.11973 0.17827,-0.0878 1.1398,-1.0336 6.4514,-6.3452 l 6.242,-6.242 0.30399,0.20603 c 0.16739,0.11335 0.55732,0.3299 0.86697,0.48039 0.30962,0.15087 0.71644,0.32651 0.90409,0.38994 0.18765,0.0634 0.54569,0.16513 0.79563,0.2263 0.25032,0.0612 0.63688,0.13736 0.85981,0.17001 0.22293,0.0323 0.60799,0.0754 0.8557,0.0957 0.2477,0.0202 0.66991,0.0368 0.93825,0.0372 0.26834,3.8e-4 0.71604,-0.0161 0.99454,-0.0364 0.27885,-0.0206 0.65866,-0.0556 0.84443,-0.0777 0.18577,-0.0221 0.54043,-0.0736 0.78813,-0.11409 0.2477,-0.0405 0.61924,-0.10846 0.82566,-0.1505 0.20641,-0.0424 0.61174,-0.13548 0.90072,-0.20753 0.28898,-0.0721 0.75357,-0.19666 1.0321,-0.27698 0.27885,-0.0803 0.79374,-0.24132 1.1447,-0.35841 0.3509,-0.11672 0.96451,-0.33777 1.3638,-0.49089 0.39931,-0.15312 1.0768,-0.42859 1.5053,-0.61212 0.42897,-0.18352 1.0734,-0.47363 1.4322,-0.64476 0.35916,-0.17152 0.96525,-0.47063 1.347,-0.66504 0.38206,-0.1944 0.99003,-0.5134 1.3511,-0.70929 0.36142,-0.1959 0.99232,-0.54943 1.4021,-0.7859 0.40983,-0.23644 1.0265,-0.6001 1.3698,-0.80804 0.3434,-0.20791 0.97092,-0.59748 1.3939,-0.86616 0.42334,-0.26871 1.2002,-0.77537 1.7264,-1.1263 0.52655,-0.35128 1.2948,-0.8748 1.7076,-1.1638 0.41283,-0.28898 1.0884,-0.77051 1.5012,-1.0692 0.41283,-0.29911 1.1983,-0.88196 1.7451,-1.2955 0.54719,-0.41321 1.3071,-0.99643 1.6888,-1.2959 0.38206,-0.29911 1.0741,-0.84895 1.5383,-1.222 0.46424,-0.37305 1.3083,-1.0648 1.8758,-1.5376 0.56744,-0.4725 1.3864,-1.1642 1.8206,-1.5368 0.43384,-0.37267 1.1259,-0.97389 1.538,-1.3361 0.41171,-0.36216 1.18,-1.0471 1.7069,-1.5219 0.52692,-0.47475 1.2955,-1.1758 1.7084,-1.5575 0.41246,-0.38206 1.0546,-0.9803 1.4266,-1.3297 0.37229,-0.34978 1.2847,-1.222 2.0278,-1.9384 0.7431,-0.71645 1.8836,-1.8409 2.5348,-2.4984 0.65114,-0.65752 1.5969,-1.6434 2.1017,-2.1906 0.50477,-0.54757 1.2982,-1.4172 1.7632,-1.9328 0.46463,-0.51566 1.1432,-1.276 1.5076,-1.6896 0.36404,-0.41359 1.0189,-1.1649 1.4547,-1.6701 l 0.79225,-0.918 -3.7635,-0.0188 -3.7635,-0.0188 -0.19741,-0.10921 c -0.10846,-0.0604 -0.28035,-0.19703 -0.3813,-0.30399 -0.10847,-0.11484 -0.20079,-0.25445 -0.22443,-0.34115 -0.0225,-0.0803 -0.0409,-0.24057 -0.0409,-0.35541 -3.8e-4,-0.11484 0.0255,-0.29573 0.057,-0.40157 0.0311,-0.10621 0.11146,-0.26383 0.17827,-0.35015 0.0664,-0.0867 0.21392,-0.20979 0.32726,-0.27397 l 0.20641,-0.11635 4.6811,-0.0101 4.6811,-0.01 0.44398,-0.55319 c 0.24432,-0.30399 0.79899,-1.0088 1.2321,-1.5661 0.43347,-0.55732 1.0504,-1.3597 1.3713,-1.7827 0.3205,-0.42334 0.8692,-1.1578 1.219,-1.6326 0.34979,-0.47476 0.94048,-1.2854 1.3128,-1.8014 0.3723,-0.51604 1.0309,-1.4449 1.4641,-2.0642 0.43309,-0.61925 1.1773,-1.7001 1.6543,-2.4019 0.47663,-0.7018 1.2539,-1.8671 1.7271,-2.5896 0.47325,-0.72245 1.1192,-1.7189 1.4355,-2.2143 0.31638,-0.4954 0.82863,-1.3061 1.1387,-1.8014 0.30962,-0.4954 0.87817,-1.416 1.2633,-2.0454 0.38468,-0.62975 0.9371,-1.5414 1.2272,-2.0266 0.29011,-0.48526 0.75546,-1.2704 1.034,-1.7451 0.27847,-0.47476 0.73035,-1.2516 1.0039,-1.7264 0.27359,-0.47476 0.75472,-1.3192 1.0696,-1.8765 0.3145,-0.55732 0.7915,-1.41 1.0602,-1.8953 0.26834,-0.48526 0.69052,-1.2535 0.93784,-1.7076 0.2477,-0.45412 0.64477,-1.189 0.8827,-1.6326 0.23795,-0.4436 0.67669,-1.2715 0.97538,-1.839 0.29873,-0.56783 0.94574,-1.8176 1.4374,-2.7772 0.49164,-0.95998 1.2134,-2.3955 1.604,-3.19 0.39069,-0.79488 0.99603,-2.0409 1.3458,-2.7693 0.3494,-0.72846 0.87291,-1.8344 1.1634,-2.4582 0.29085,-0.62338 0.80311,-1.7418 1.1386,-2.4849 0.33515,-0.74311 0.8013,-1.7902 1.0354,-2.3269 l 0.42559,-0.97578 0.0154,-0.27247 c 0.0135,-0.23719 0.002,-0.29949 -0.0841,-0.47626 -0.0548,-0.11184 -0.16138,-0.25745 -0.23681,-0.32388 -0.0758,-0.0664 -0.23044,-0.16326 -0.34378,-0.21505 -0.14036,-0.0642 -0.29086,-0.0987 -0.471,-0.10809 z m -33.923,34.078 c 0.25671,0.009 0.34678,0.0311 0.55695,0.13473 0.19666,0.0968 0.27472,0.161 0.36104,0.29724 0.0608,0.0957 0.12872,0.24169 0.15124,0.32425 0.0221,0.0829 0.0327,0.25371 0.0225,0.37943 -0.0105,0.13174 -0.0604,0.32314 -0.11859,0.45224 l -0.10021,0.2233 -25.003,25 -25.003,25 -0.22255,0.0635 c -0.15688,0.0447 -0.2886,0.0563 -0.44548,0.0402 -0.12235,-0.0128 -0.32314,-0.0683 -0.44586,-0.12348 -0.13398,-0.0604 -0.27397,-0.15988 -0.3509,-0.24958 -0.0702,-0.0818 -0.15575,-0.23343 -0.18991,-0.33626 -0.0435,-0.13061 -0.0567,-0.26309 -0.0443,-0.43573 0.0101,-0.1366 0.0567,-0.34152 0.10396,-0.45486 l 0.0859,-0.20641 24.947,-24.948 c 13.721,-13.724 24.994,-24.98 25.055,-25.015 0.0619,-0.0349 0.16326,-0.0841 0.22518,-0.10959 0.0676,-0.0278 0.23531,-0.042 0.41846,-0.0353 z"
       id="icon" /></g></svg>